<svg>
  <g id="nav-cat">
    <path fill-rule="evenodd" clip-rule="evenodd" d="M12.2223 2.22223H7.77779C5.93679 2.22223 4.44446 3.71462 4.44446 5.55556V32.2222C4.44446 34.0632 5.93679 35.5556 7.77779 35.5556H26.6667C28.5077 35.5556 30 34.0632 30 32.2222V5.55556C30 3.71462 28.5077 2.22223 26.6667 2.22223H25.5557V4.44445H26.6667C27.2803 4.44445 27.7778 4.9419 27.7778 5.55556V32.2222C27.7778 32.8359 27.2803 33.3333 26.6667 33.3333H7.77779C7.16412 33.3333 6.66668 32.8359 6.66668 32.2222V5.55556C6.66668 4.9419 7.16412 4.44445 7.77779 4.44445H12.2223V2.22223ZM14.4446 4.44445H23.3335V2.22223H14.4446V4.44445Z" fill="#707070"/>
    <path fill-rule="evenodd" clip-rule="evenodd" d="M8.88892 14.4445C8.88892 13.8308 9.38636 13.3333 10 13.3333H24.4445C25.0581 13.3333 25.5556 13.8308 25.5556 14.4445C25.5556 15.0581 25.0581 15.5556 24.4445 15.5556H10C9.38636 15.5556 8.88892 15.0581 8.88892 14.4445Z" fill="#707070"/>
    <path fill-rule="evenodd" clip-rule="evenodd" d="M8.88892 20C8.88892 19.3863 9.38636 18.8889 10 18.8889H17.7778C18.3915 18.8889 18.8889 19.3863 18.8889 20C18.8889 20.6137 18.3915 21.1111 17.7778 21.1111H10C9.38636 21.1111 8.88892 20.6137 8.88892 20Z" fill="#707070"/>
    <path fill-rule="evenodd" clip-rule="evenodd" d="M8.88892 25.5556C8.88892 24.9419 9.38636 24.4445 10 24.4445H22.2222C22.8359 24.4445 23.3334 24.9419 23.3334 25.5556C23.3334 26.1692 22.8359 26.6667 22.2222 26.6667H10C9.38636 26.6667 8.88892 26.1692 8.88892 25.5556Z" fill="#707070"/>
    <path fill-rule="evenodd" clip-rule="evenodd" d="M2.22222 4.44446V32.2222C2.22222 35.2905 4.70956 37.7778 7.77778 37.7778H26.6667V40H7.77778C3.48223 40 0 36.5178 0 32.2222V4.44446H2.22222Z" fill="#707070"/>
    <path fill-rule="evenodd" clip-rule="evenodd" d="M33.3334 7.77779C33.3334 5.93679 34.8257 4.44446 36.6667 4.44446C38.5077 4.44446 40 5.93679 40 7.77779V30.3365L36.6667 35.3365L33.3334 30.3365V7.77779ZM36.6667 6.66668C36.053 6.66668 35.5556 7.16412 35.5556 7.77779V29.6636L36.6667 31.3302L37.7778 29.6636V7.77779C37.7778 7.16412 37.2804 6.66668 36.6667 6.66668Z" fill="#707070"/>
    <path fill-rule="evenodd" clip-rule="evenodd" d="M38.8889 12.2222H34.4445V10H38.8889V12.2222Z" fill="#707070"/>
    <path fill-rule="evenodd" clip-rule="evenodd" d="M22.2222 0C22.8359 0 23.3333 0.497467 23.3333 1.11111V5.55556C23.3333 6.16922 22.8359 6.66667 22.2222 6.66667C21.6085 6.66667 21.1111 6.16922 21.1111 5.55556V1.11111C21.1111 0.497467 21.6085 0 22.2222 0Z" fill="#707070"/>
    <path fill-rule="evenodd" clip-rule="evenodd" d="M11.1111 0C11.7248 0 12.2222 0.497467 12.2222 1.11111V5.55556C12.2222 6.16922 11.7248 6.66667 11.1111 6.66667C10.4974 6.66667 10 6.16922 10 5.55556V1.11111C10 0.497467 10.4974 0 11.1111 0Z" fill="#707070"/>
  </g>
</svg>