<svg xmlns="http://www.w3.org/2000/svg" width="23.1" height="25.5" viewBox="0 0 23.1 25.5">
  <g id="Icon_feather-share-2" data-name="Icon feather-share-2" transform="translate(-3.75 -2.25)">
    <path id="Caminho_142" data-name="Caminho 142" d="M29.7,6.6A3.6,3.6,0,1,1,26.1,3a3.6,3.6,0,0,1,3.6,3.6Z" transform="translate(-3.6 0)" fill="none" stroke="#0a3874" stroke-linecap="round" stroke-linejoin="round" stroke-width="1.5"/>
    <path id="Caminho_143" data-name="Caminho 143" d="M11.7,17.1a3.6,3.6,0,1,1-3.6-3.6A3.6,3.6,0,0,1,11.7,17.1Z" transform="translate(0 -2.1)" fill="none" stroke="#0a3874" stroke-linecap="round" stroke-linejoin="round" stroke-width="1.5"/>
    <path id="Caminho_144" data-name="Caminho 144" d="M29.7,27.6A3.6,3.6,0,1,1,26.1,24,3.6,3.6,0,0,1,29.7,27.6Z" transform="translate(-3.6 -4.2)" fill="none" stroke="#0a3874" stroke-linecap="round" stroke-linejoin="round" stroke-width="1.5"/>
    <path id="Caminho_145" data-name="Caminho 145" d="M12.885,20.265l8.2,4.776" transform="translate(-1.677 -3.453)" fill="none" stroke="#0a3874" stroke-linecap="round" stroke-linejoin="round" stroke-width="1.5"/>
    <path id="Caminho_146" data-name="Caminho 146" d="M21.069,9.765l-8.184,4.776" transform="translate(-1.677 -1.353)" fill="none" stroke="#0a3874" stroke-linecap="round" stroke-linejoin="round" stroke-width="1.5"/>
  </g>
</svg>
