<svg width="355" height="933" viewBox="0 0 355 933" fill="none" xmlns="http://www.w3.org/2000/svg">
<g clip-path="url(#clip0)">
<path d="M-66.712 -0.0146484C-66.712 -0.0146484 -69.2679 62.9454 -48.5323 119.812C-27.7967 176.678 43.5837 309.973 38.7662 603.77C33.9486 897.564 37.8755 983.846 37.8755 983.846L-23.4748 989.529C-23.4748 989.529 33.559 566.866 -3.02265 354.652C-39.6043 142.438 -84.1837 184.622 -95.0279 2.625L-66.712 -0.0146484Z" fill="#FFA452"/>
<path d="M-76.8986 758.335C-76.8986 758.335 -102.892 616.129 -6.69314 366.397C-6.69314 366.397 -73.0894 56.0179 -2.57731 -251.571L57.0907 -260.475C57.0907 -260.475 -104.012 419.803 271.137 706.382L189.475 718.576C189.475 718.576 102.533 571.937 85.134 569.12C67.7342 566.304 106.203 652.547 89.0321 733.568L68.5196 736.624C68.5196 736.624 69.9455 539.724 18.8879 450.14C15.2794 443.825 8.76795 443.106 5.06958 448.694C-12.0343 474.541 -54.2746 558.416 -52.676 754.717L-76.8986 758.335Z" fill="url(#paint0_linear)"/>
<path d="M160.062 -13.7559C160.062 -13.7559 162.39 49.2168 187.454 103.797C212.517 158.377 293.929 284.038 311.902 577.178C329.875 870.314 340.469 955.879 340.469 955.879L279.81 967.681C279.81 967.681 303.859 540.968 250.97 333.225C198.081 125.482 156.937 171.904 132.058 -8.31242L160.062 -13.7559Z" fill="url(#paint1_linear)"/>
<path d="M326.823 -37.4751C326.823 -37.4751 325.152 44.0699 300.523 117.311C275.894 190.552 195.39 361.813 180.402 742.232C165.414 1122.65 155.668 1234.28 155.668 1234.28L216.761 1242.77C216.761 1242.77 188.106 694.592 239.079 420.567C290.052 146.543 331.886 201.855 355 -33.5535L326.823 -37.4751Z" fill="white"/>
<path d="M123.553 990.788C123.553 990.788 85.9859 275.721 88.7704 216.253C91.5555 156.785 94.4685 32.722 106.482 1.9934L122.985 0.458868L123.86 307.182C123.86 307.182 219.295 150.269 231.732 92.5943C244.17 34.9195 224.369 -8.98832 224.369 -8.98832L292.742 -15.3601C292.742 -15.3601 273.945 118.264 220.215 228.232C166.484 338.201 139.371 324.573 160.619 683.224C181.868 1041.88 180.113 985.516 180.113 985.516L123.553 990.788Z" fill="#FFA452"/>
<rect width="1439" height="960.557" transform="matrix(-1 0 0 1 1439 929.063)" fill="url(#paint2_linear)"/>
</g>
<defs>
<linearGradient id="paint0_linear" x1="89.3637" y1="666.276" x2="-16.3607" y2="-42.0011" gradientUnits="userSpaceOnUse">
<stop stop-color="#8CE8E1"/>
<stop offset="1" stop-color="#19D1C3"/>
</linearGradient>
<linearGradient id="paint1_linear" x1="49769.5" y1="655427" x2="14021.2" y2="660839" gradientUnits="userSpaceOnUse">
<stop stop-color="#8CE8E1"/>
<stop offset="1" stop-color="#19D1C3"/>
</linearGradient>
<linearGradient id="paint2_linear" x1="719.5" y1="0" x2="719.5" y2="960.557" gradientUnits="userSpaceOnUse">
<stop stop-color="#8CE8E1"/>
<stop offset="1" stop-color="#C4C4C4" stop-opacity="0"/>
</linearGradient>
<clipPath id="clip0">
<rect width="450" height="933" fill="white" transform="matrix(-1 0 0 1 355 0)"/>
</clipPath>
</defs>
</svg>
