<svg id="Grupo_212" data-name="Grupo 212" xmlns="http://www.w3.org/2000/svg" width="22" height="22" viewBox="0 0 22 22">
  <g id="_055-cube" data-name="055-cube">
    <g id="Grupo_94" data-name="Grupo 94">
      <path id="Caminho_63" data-name="Caminho 63" d="M18.563,0H8.637a3.45,3.45,0,0,0-2.5,1.077L1.307,5.9A3.433,3.433,0,0,0,0,8.594v9.969A3.441,3.441,0,0,0,3.437,22h9.926a3.428,3.428,0,0,0,2.487-1.067l.013-.013L21,15.834l0,0a3.416,3.416,0,0,0,1-2.424V3.438A3.441,3.441,0,0,0,18.563,0ZM7.361,2.284l.02-.021a1.7,1.7,0,0,1,1.255-.544h9.921L14.8,5.472a3.418,3.418,0,0,0-1.438-.315H4.483Zm12.92,11.122a1.708,1.708,0,0,1-.5,1.21L16.8,17.572V15.984a.859.859,0,1,0-1.719,0v2.578a1.721,1.721,0,0,1-1.719,1.719H3.437a1.721,1.721,0,0,1-1.719-1.719V8.594A1.721,1.721,0,0,1,3.437,6.875h9.926a1.721,1.721,0,0,1,1.719,1.719v3.094a.859.859,0,0,0,1.719,0V8.594a3.419,3.419,0,0,0-.663-2.028l3.941-3.937a1.708,1.708,0,0,1,.2.809Z" fill="#053471"/>
    </g>
  </g>
</svg>
