<svg xmlns="http://www.w3.org/2000/svg" width="15.75" height="15.75" viewBox="0 0 15.75 15.75">
  <path id="Icon_awesome-whatsapp" data-name="Icon awesome-whatsapp" d="M13.391,3.414A7.807,7.807,0,0,0,1.107,12.832L0,16.875l4.138-1.086a7.781,7.781,0,0,0,3.73.949h0a7.88,7.88,0,0,0,7.879-7.8,7.835,7.835,0,0,0-2.359-5.52ZM7.871,15.423a6.475,6.475,0,0,1-3.3-.9l-.236-.141-2.454.643.654-2.394-.155-.246A6.5,6.5,0,1,1,14.432,8.933a6.559,6.559,0,0,1-6.56,6.49Zm3.558-4.859c-.193-.1-1.153-.57-1.332-.633s-.309-.1-.439.1-.5.633-.619.766-.229.148-.422.049a5.308,5.308,0,0,1-2.654-2.32c-.2-.345.2-.32.573-1.065a.361.361,0,0,0-.018-.341c-.049-.1-.439-1.058-.6-1.448s-.32-.327-.439-.334S5.235,5.33,5.1,5.33a.722.722,0,0,0-.52.243A2.191,2.191,0,0,0,3.9,7.2,3.82,3.82,0,0,0,4.7,9.218,8.714,8.714,0,0,0,8.03,12.164a3.816,3.816,0,0,0,2.341.489,2,2,0,0,0,1.315-.928A1.631,1.631,0,0,0,11.8,10.8C11.753,10.709,11.623,10.659,11.429,10.564Z" transform="translate(0 -1.125)" fill="#4e4e4e"/>
</svg>
