<svg width="58" height="40" viewBox="0 0 58 40" fill="none" xmlns="http://www.w3.org/2000/svg">
<path fill-rule="evenodd" clip-rule="evenodd" d="M19.941 32.9071C19.7958 32.9003 19.6344 32.894 19.4553 32.8886C18.4042 32.8568 16.9829 32.8566 14.9994 32.8566C13.0161 32.8566 11.5948 32.8568 10.5437 32.8887C10.3645 32.8941 10.203 32.9004 10.0579 32.9073C10.4263 35.3052 12.4984 37.1415 14.9994 37.1415C17.5005 37.1415 19.5727 35.3052 19.941 32.9071ZM8.87623 33.0237C8.8758 33.0238 8.87666 33.0235 8.87623 33.0237V33.0237ZM21.1214 33.0231C21.1209 33.023 21.1219 33.0233 21.1214 33.0231V33.0231ZM14.9994 39.9986C19.3387 39.9986 22.8563 36.481 22.8563 32.1417C22.8563 31.5075 22.8563 31.0609 22.6525 30.7466C22.1678 29.9992 20.5304 29.9995 14.9994 29.9995C7.14258 29.9995 7.14258 29.9995 7.14258 32.1417C7.14258 36.481 10.6602 39.9986 14.9994 39.9986Z" fill="#053471"/>
<path fill-rule="evenodd" clip-rule="evenodd" d="M38.82 8.57114H45.7126V25.7134H42.8556V11.4282H41.177L37.1155 32.4131L34.3104 31.8703L38.82 8.57114Z" fill="#053471"/>
<path fill-rule="evenodd" clip-rule="evenodd" d="M49.2091 37.0524C51.9213 36.5336 53.6993 33.9142 53.1803 31.202L55.9865 30.6652C56.8019 34.927 54.008 39.043 49.7461 39.8586C45.4841 40.674 41.3681 37.8801 40.5527 33.6182L43.3588 33.0812C43.8778 35.7934 46.4971 37.5714 49.2091 37.0524Z" fill="#053471"/>
<path fill-rule="evenodd" clip-rule="evenodd" d="M51.9567 26.8739C50.5602 25.8959 48.8322 25.5129 47.1533 25.8089C45.4742 26.1051 43.9817 27.0559 43.0037 28.4526C42.3039 29.4521 41.9086 30.6215 41.8491 31.8211L54.1939 29.6445C53.7276 28.5374 52.9562 27.5737 51.9567 26.8739ZM54.3542 29.6161C54.3551 29.6159 54.3542 29.6161 54.3542 29.6161V29.6161ZM46.6572 22.9953C49.0824 22.5678 51.5782 23.121 53.5955 24.5335C55.1482 25.6208 56.3194 27.1485 56.9717 28.9003C57.6215 30.646 56.316 32.1714 54.8483 32.4301L42.1869 34.6628C40.7192 34.9215 38.9707 33.9346 38.9845 32.0719C38.998 30.2026 39.5761 28.3666 40.6634 26.8138C42.0759 24.7965 44.232 23.423 46.6572 22.9953Z" fill="#053471"/>
<path fill-rule="evenodd" clip-rule="evenodd" d="M24.2848 14.2852H11.4281C10.6392 14.2852 9.99962 14.9248 9.99962 15.7137V18.5708H25.7133V15.7137C25.7133 14.9248 25.0738 14.2852 24.2848 14.2852ZM11.4281 11.4282C9.06122 11.4282 7.14258 13.3468 7.14258 15.7137V19.9993C7.14258 20.7883 7.78216 21.4278 8.5711 21.4278H27.1419C27.9308 21.4278 28.5704 20.7883 28.5704 19.9993V15.7137C28.5704 13.3468 26.6517 11.4282 24.2848 11.4282H11.4281Z" fill="#053471"/>
<path fill-rule="evenodd" clip-rule="evenodd" d="M24.2849 21.4278H14.4086C8.73198 21.4278 4.19198 25.1914 3.10519 29.9989H24.1261C24.2089 29.9989 24.2597 29.9725 24.2849 29.9527V21.4278ZM14.4086 18.5708C6.45097 18.5708 0 24.6823 0 32.2211C0 32.5717 0.300047 32.856 0.670176 32.856H24.1261C25.7917 32.856 27.1419 31.5769 27.1419 29.9989V19.7136C27.1419 19.0825 26.6018 18.5708 25.9357 18.5708H14.4086Z" fill="#053471"/>
<path fill-rule="evenodd" clip-rule="evenodd" d="M44.2841 2.85704H41.4271C39.8492 2.85704 38.5701 4.13614 38.5701 5.71408C38.5701 7.29203 39.8492 8.57112 41.4271 8.57112H44.2841V2.85704ZM41.4271 0C38.2714 0 35.713 2.55834 35.713 5.71408C35.713 8.86983 38.2714 11.4282 41.4271 11.4282H46.2621C46.7476 11.4282 47.1412 11.0346 47.1412 10.5491V0.879112C47.1412 0.393558 46.7476 0 46.2621 0H41.4271Z" fill="#053471"/>
<path d="M30.4935 1.42853L37.5282 2.66491L37.0337 5.47881L29.9989 4.24243L30.4935 1.42853Z" fill="#053471"/>
<path fill-rule="evenodd" clip-rule="evenodd" d="M39.9986 32.856H22.8563V29.9989H39.9986V32.856Z" fill="#053471"/>
<path fill-rule="evenodd" clip-rule="evenodd" d="M37.1416 25.7134H24.2849V22.8563H37.1416V25.7134Z" fill="#053471"/>
</svg>
