<svg width="46" height="40" viewBox="0 0 46 40" fill="none" xmlns="http://www.w3.org/2000/svg">
<path d="M33.1908 0C31.0557 0.0332099 28.9672 0.629224 27.1361 1.72785C25.3051 2.82648 23.7963 4.38882 22.7623 6.2571C21.7282 4.38882 20.2195 2.82648 18.3884 1.72785C16.5574 0.629224 14.4689 0.0332099 12.3338 0C8.93018 0.147878 5.72344 1.63681 3.41415 4.14151C1.10485 6.6462 -0.119282 9.96306 0.00917918 13.3674C0.00917918 21.989 9.08387 31.405 16.6948 37.7891C18.3941 39.2171 20.5426 40 22.7623 40C24.9819 40 27.1305 39.2171 28.8298 37.7891C36.4407 31.405 45.5154 21.989 45.5154 13.3674C45.6438 9.96306 44.4197 6.6462 42.1104 4.14151C39.8011 1.63681 36.5944 0.147878 33.1908 0ZM26.3933 34.8881C25.377 35.7439 24.091 36.2133 22.7623 36.2133C21.4336 36.2133 20.1476 35.7439 19.1313 34.8881C9.38914 26.714 3.80136 18.8718 3.80136 13.3674C3.67175 10.9684 4.49603 8.61533 6.09443 6.82157C7.69283 5.02781 9.93566 3.93885 12.3338 3.79218C14.7319 3.93885 16.9747 5.02781 18.5731 6.82157C20.1715 8.61533 20.9958 10.9684 20.8662 13.3674C20.8662 13.8703 21.066 14.3526 21.4215 14.7082C21.7771 15.0638 22.2594 15.2635 22.7623 15.2635C23.2652 15.2635 23.7474 15.0638 24.103 14.7082C24.4586 14.3526 24.6584 13.8703 24.6584 13.3674C24.5288 10.9684 25.353 8.61533 26.9514 6.82157C28.5498 5.02781 30.7927 3.93885 33.1908 3.79218C35.5889 3.93885 37.8317 5.02781 39.4301 6.82157C41.0285 8.61533 41.8528 10.9684 41.7232 13.3674C41.7232 18.8718 36.1354 26.714 26.3933 34.8805V34.8881Z" fill="#053471"/>
</svg>
