<svg width="24" height="40" viewBox="0 0 24 40" fill="none" xmlns="http://www.w3.org/2000/svg">
<path d="M10.0711 7.41421C9.29004 6.63321 8.02374 6.63321 7.24264 7.41421L4.41424 10.2426C3.63324 11.0237 3.63324 12.29 4.41424 13.0711C5.19534 13.8521 6.46164 13.8521 7.24264 13.0711L10.0711 10.2426C10.8521 9.46161 10.8521 8.19531 10.0711 7.41421Z" fill="#707070"/>
<path d="M16.2426 7.41421C17.0237 6.63321 18.29 6.63321 19.0711 7.41421C19.8521 8.19531 19.8521 9.46161 19.0711 10.2426L16.2426 13.0711C15.4616 13.8521 14.1953 13.8521 13.4142 13.0711C12.6332 12.29 12.6332 11.0237 13.4142 10.2426L16.2426 7.41421Z" fill="#707070"/>
<path d="M10.0711 26.4142C9.29004 25.6332 8.02374 25.6332 7.24264 26.4142L4.41424 29.2426C3.63324 30.0237 3.63324 31.29 4.41424 32.0711C5.19534 32.8521 6.46164 32.8521 7.24264 32.0711L10.0711 29.2426C10.8521 28.4616 10.8521 27.1953 10.0711 26.4142Z" fill="#707070"/>
<path d="M16.2426 26.4142C17.0237 25.6332 18.29 25.6332 19.0711 26.4142C19.8521 27.1953 19.8521 28.4616 19.0711 29.2426L16.2426 32.0711C15.4616 32.8521 14.1953 32.8521 13.4142 32.0711C12.6332 31.29 12.6332 30.0237 13.4142 29.2426L16.2426 26.4142Z" fill="#707070"/>
<path d="M7 20C7 20.5523 6.5523 21 6 21C5.4477 21 5 20.5523 5 20C5 19.4477 5.4477 19 6 19C6.5523 19 7 19.4477 7 20Z" fill="#707070"/>
<path d="M10 21C10.5523 21 11 20.5523 11 20C11 19.4477 10.5523 19 10 19C9.4477 19 9 19.4477 9 20C9 20.5523 9.4477 21 10 21Z" fill="#707070"/>
<path d="M15 20C15 20.5523 14.5523 21 14 21C13.4477 21 13 20.5523 13 20C13 19.4477 13.4477 19 14 19C14.5523 19 15 19.4477 15 20Z" fill="#707070"/>
<path d="M18 21C18.5523 21 19 20.5523 19 20C19 19.4477 18.5523 19 18 19C17.4477 19 17 19.4477 17 20C17 20.5523 17.4477 21 18 21Z" fill="#707070"/>
<path fill-rule="evenodd" clip-rule="evenodd" d="M0 4C0 1.79086 1.7909 0 4 0H20C22.2091 0 24 1.79086 24 4V36C24 38.2091 22.2091 40 20 40H4C1.7909 40 0 38.2091 0 36V4ZM2 4C2 2.89543 2.8954 2 4 2H20C21.1046 2 22 2.89543 22 4V19C21.4477 19 21 19.4477 21 20C21 20.5523 21.4477 21 22 21V36C22 37.1046 21.1046 38 20 38H4C2.8954 38 2 37.1046 2 36V21C2.5523 21 3 20.5523 3 20C3 19.4477 2.5523 19 2 19V4Z" fill="#707070"/>
</svg>
