<svg width="54" height="40" viewBox="0 0 54 40" fill="none" xmlns="http://www.w3.org/2000/svg">
<path d="M15.5556 6.6667H51.1111C51.7005 6.6667 52.2657 6.43257 52.6825 6.01583C53.0992 5.59908 53.3333 5.03385 53.3333 4.44448C53.3333 3.85511 53.0992 3.28988 52.6825 2.87313C52.2657 2.45639 51.7005 2.22226 51.1111 2.22226H15.5556C14.9662 2.22226 14.401 2.45639 13.9842 2.87313C13.5675 3.28988 13.3333 3.85511 13.3333 4.44448C13.3333 5.03385 13.5675 5.59908 13.9842 6.01583C14.401 6.43257 14.9662 6.6667 15.5556 6.6667Z" fill="#053471"/>
<path d="M51.1111 17.7778H15.5556C14.9662 17.7778 14.401 18.0119 13.9842 18.4287C13.5675 18.8454 13.3333 19.4107 13.3333 20C13.3333 20.5894 13.5675 21.1546 13.9842 21.5714C14.401 21.9881 14.9662 22.2222 15.5556 22.2222H51.1111C51.7005 22.2222 52.2657 21.9881 52.6825 21.5714C53.0992 21.1546 53.3333 20.5894 53.3333 20C53.3333 19.4107 53.0992 18.8454 52.6825 18.4287C52.2657 18.0119 51.7005 17.7778 51.1111 17.7778Z" fill="#053471"/>
<path d="M51.1111 33.3333H15.5556C14.9662 33.3333 14.401 33.5674 13.9842 33.9842C13.5675 34.4009 13.3333 34.9662 13.3333 35.5555C13.3333 36.1449 13.5675 36.7101 13.9842 37.1269C14.401 37.5436 14.9662 37.7778 15.5556 37.7778H51.1111C51.7005 37.7778 52.2657 37.5436 52.6825 37.1269C53.0992 36.7101 53.3333 36.1449 53.3333 35.5555C53.3333 34.9662 53.0992 34.4009 52.6825 33.9842C52.2657 33.5674 51.7005 33.3333 51.1111 33.3333Z" fill="#053471"/>
<path d="M4.44444 8.88888C6.89904 8.88888 8.88889 6.89904 8.88889 4.44444C8.88889 1.98984 6.89904 0 4.44444 0C1.98985 0 0 1.98984 0 4.44444C0 6.89904 1.98985 8.88888 4.44444 8.88888Z" fill="#053471"/>
<path d="M4.44444 24.4444C6.89904 24.4444 8.88889 22.4546 8.88889 20C8.88889 17.5454 6.89904 15.5555 4.44444 15.5555C1.98985 15.5555 0 17.5454 0 20C0 22.4546 1.98985 24.4444 4.44444 24.4444Z" fill="#053471"/>
<path d="M4.44444 40C6.89904 40 8.88889 38.0101 8.88889 35.5556C8.88889 33.101 6.89904 31.1111 4.44444 31.1111C1.98985 31.1111 0 33.101 0 35.5556C0 38.0101 1.98985 40 4.44444 40Z" fill="#053471"/>
</svg>
