<svg width="40" height="40" viewBox="0 0 40 40" fill="none" xmlns="http://www.w3.org/2000/svg">
<path d="M38.7015 9.57166L33.6832 2.79167C33.066 1.92889 32.2522 1.22561 31.309 0.740127C30.3659 0.25464 29.3206 0.000922867 28.2598 2.93731e-06H11.7432C10.6876 -0.000987891 9.6468 0.248708 8.70654 0.728541C7.76629 1.20837 6.95342 1.90463 6.33483 2.76L1.2265 9.58833C0.394776 10.7611 -0.034755 12.1718 0.00219965 13.6091C0.0391543 15.0464 0.540607 16.4331 1.4315 17.5617L16.0848 38.1083C16.5518 38.6996 17.147 39.1772 17.8255 39.5048C18.504 39.8325 19.248 40.0018 20.0015 40C20.7679 39.9984 21.5237 39.8211 22.2108 39.4816C22.8979 39.1421 23.498 38.6495 23.9648 38.0416L38.5015 17.7233C39.4323 16.5783 39.9569 15.1568 39.9931 13.6816C40.0293 12.2065 39.575 10.761 38.7015 9.57166V9.57166ZM30.9882 4.75167L36.0182 11.5483C36.0448 11.585 36.0515 11.6283 36.0782 11.6667H27.9248L25.5448 3.33333H28.2598C28.7948 3.33499 29.3215 3.4646 29.7961 3.71134C30.2708 3.95807 30.6795 4.31478 30.9882 4.75167V4.75167ZM20.0015 31.8633L15.5015 15H24.5015L20.0015 31.8633ZM15.5448 11.6667L17.9248 3.33333H22.0782L24.4582 11.6667H15.5448ZM9.02983 4.72833C9.33908 4.29731 9.74641 3.94603 10.2182 3.70347C10.69 3.46092 11.2127 3.33404 11.7432 3.33333H14.4582L12.0782 11.6667H3.86483C3.88817 11.63 3.89483 11.585 3.9215 11.55L9.02983 4.72833ZM4.0815 15.5417C3.96116 15.3717 3.85788 15.1902 3.77317 15H12.0548L17.0448 33.7166L4.0815 15.5417ZM22.9532 33.7333L27.9532 15H36.2632C36.1558 15.2488 36.0199 15.4842 35.8582 15.7017L22.9532 33.7333Z" fill="#053471"/>
</svg>
