<svg width="28" height="40" viewBox="0 0 28 40" fill="none" xmlns="http://www.w3.org/2000/svg">
<path d="M13.9175 8.16053C15.015 8.16053 15.9045 7.27095 15.9045 6.17352C15.9045 5.07613 15.015 4.18652 13.9175 4.18652C12.8201 4.18652 11.9305 5.07613 11.9305 6.17352C11.9305 7.27095 12.8201 8.16053 13.9175 8.16053Z" fill="#707070"/>
<path fill-rule="evenodd" clip-rule="evenodd" d="M3.97404 34.039H4.97598V36.026H6.96358C6.98881 37.1015 7.86846 37.9655 8.94998 37.9655H10.937C12.0185 37.9655 12.8981 37.1015 12.9234 36.026H16.8892V40H18.8762V36.026H22.859V34.039H23.844C26.0388 34.039 27.818 32.2598 27.818 30.0651V6.33457C27.818 4.13982 26.0388 2.3606 23.844 2.3606H17.883L16.7583 1.20381C15.1978 -0.40127 12.6202 -0.40127 11.0597 1.20381L9.93504 2.3606H3.97404C1.7792 2.3606 0 4.13982 0 6.33457V30.065C0 32.2598 1.7792 34.039 3.97404 34.039ZM17.883 4.3476C17.3463 4.3476 16.8324 4.1305 16.4584 3.7457L15.3336 2.58891C14.5534 1.78636 13.2646 1.78636 12.4844 2.5889L11.3596 3.7457C10.9856 4.1305 10.4717 4.3476 9.93504 4.3476H3.97404C2.87662 4.3476 1.98704 5.23721 1.98704 6.33457V25.0687C3.28028 25.0477 4.50308 25.0852 5.66339 25.1279C5.84073 25.1345 6.01618 25.1411 6.19014 25.1478C6.50885 25.1598 6.8227 25.1716 7.13158 25.1823C8.05842 25.2141 8.94521 25.2349 9.81761 25.2163C12.4276 25.1608 14.8269 24.7536 17.3781 23.2484C20.4766 21.4204 23.0989 21.9694 24.9118 23.0244C25.2483 23.2202 25.555 23.4319 25.831 23.6459V19.5858H21.8655V17.5988H25.831V14.6183H21.8655V12.6313H25.831V9.65077H21.8655V7.66377H25.831V6.33457C25.831 5.23721 24.9414 4.3476 23.844 4.3476H17.883ZM3.97404 32.052C2.87662 32.052 1.98704 31.1624 1.98704 30.065V27.056C3.23368 27.0347 4.42499 27.0706 5.59016 27.1136C5.76462 27.1201 5.93888 27.1266 6.11284 27.1333C7.38095 27.1814 8.63345 27.229 9.85983 27.2028C12.683 27.1428 15.45 26.6931 18.3878 24.9597C20.7785 23.5492 22.6269 23.9936 23.9125 24.7417C24.5798 25.1302 25.1085 25.6118 25.4725 26.0025C25.6237 26.1647 25.7438 26.3083 25.831 26.4185V30.0651C25.831 31.1624 24.9414 32.052 23.844 32.052H3.97404Z" fill="#707070"/>
</svg>
