<svg width="36" height="40" viewBox="0 0 36 40" fill="none" xmlns="http://www.w3.org/2000/svg">
<path fill-rule="evenodd" clip-rule="evenodd" d="M6.66667 0C5.43933 0 4.44444 0.994922 4.44444 2.22222V10.1111C1.90862 10.6259 0 12.8678 0 15.5556V34.4444C0 37.5127 2.48733 40 5.55556 40H18.8889C21.167 40 23.1249 38.6288 23.9822 36.6667H21.3734C20.7631 37.3486 19.8761 37.7778 18.8889 37.7778H5.55556C3.71456 37.7778 2.22222 36.2854 2.22222 34.4444V33.3333H13.3333C13.947 33.3333 14.4444 32.8359 14.4444 32.2222C14.4444 31.6086 13.947 31.1111 13.3333 31.1111H2.22222V21.1111H11.1111C11.7248 21.1111 12.2222 20.6137 12.2222 20C12.2222 19.3863 11.7248 18.8889 11.1111 18.8889H2.22222V15.5556C2.22222 13.7146 3.71456 12.2222 5.55556 12.2222H18.8889C19.8761 12.2222 20.7631 12.6514 21.3734 13.3333H23.9822C23.2681 11.699 21.7903 10.4746 20 10.1111V2.22222C20 0.994922 19.0051 0 17.7778 0H6.66667ZM17.7778 2.22222H6.66667V10H17.7778V2.22222Z" fill="#707070"/>
<path d="M25.5555 20C26.1692 20 26.6666 20.4974 26.6666 21.1111V23.3333H28.8889C29.5025 23.3333 30 23.8308 30 24.4444C30 25.0581 29.5025 25.5556 28.8889 25.5556H26.6666V27.7778C26.6666 28.3914 26.1692 28.8889 25.5555 28.8889C24.9419 28.8889 24.4444 28.3914 24.4444 27.7778V25.5556H22.2222C21.6085 25.5556 21.1111 25.0581 21.1111 24.4444C21.1111 23.8308 21.6085 23.3333 22.2222 23.3333H24.4444V21.1111C24.4444 20.4974 24.9419 20 25.5555 20Z" fill="#707070"/>
<path fill-rule="evenodd" clip-rule="evenodd" d="M17.3997 30.7653C19.319 33.1903 22 34.8802 24.9992 35.5555C27.9986 34.8807 30.68 33.1908 32.5997 30.7658C34.5194 28.3408 35.5623 25.326 35.5556 22.2204V18.2219C35.5556 17.5147 35.2776 16.8365 34.7828 16.3364C34.288 15.8364 33.617 15.5555 32.9174 15.5555H17.0827C16.383 15.5555 15.712 15.8364 15.2173 16.3364C14.7225 16.8365 14.4445 17.5147 14.4445 18.2219V22.2204C14.4377 25.3258 15.4804 28.3403 17.3997 30.7653ZM33.3334 22.2204V22.2252C33.3389 24.8307 32.4638 27.3571 30.8574 29.3865C29.3565 31.2824 27.3022 32.6375 24.9993 33.2661C22.6967 32.6373 20.6427 31.2821 19.1422 29.3861C17.5359 27.3568 16.661 24.8305 16.6667 22.2252V18.2219C16.6667 18.0965 16.7163 17.981 16.7969 17.8995C16.8767 17.8188 16.98 17.7778 17.0827 17.7778H32.9174C33.02 17.7778 33.1234 17.8188 33.2032 17.8995C33.2838 17.981 33.3334 18.0965 33.3334 18.2219V22.2204Z" fill="#707070"/>
</svg>
