<svg width="41" height="40" viewBox="0 0 41 40" fill="none" xmlns="http://www.w3.org/2000/svg">
<path fill-rule="evenodd" clip-rule="evenodd" d="M26.3581 1.86935L27.2554 1.19638L27.2601 1.2027L27.272 1.21866L27.3165 1.27858C27.355 1.33066 27.4109 1.40655 27.4816 1.50367C27.6231 1.69784 27.8242 1.97716 28.0651 2.32068C28.5462 3.00668 29.1895 3.95371 29.8347 4.99324C30.4776 6.02894 31.1349 7.17659 31.6351 8.26052C32.1158 9.30194 32.527 10.4398 32.527 11.4031C32.527 14.8266 29.7816 17.572 26.3581 17.572C22.9346 17.572 20.1892 14.8266 20.1892 11.4031C20.1892 10.4398 20.6004 9.30194 21.0811 8.26052C21.5814 7.17659 22.2386 6.02894 22.8815 4.99324C23.5267 3.95371 24.1701 3.00668 24.6511 2.32068C24.892 1.97716 25.0932 1.69784 25.2346 1.50367C25.3054 1.40655 25.3612 1.33066 25.3997 1.27858L25.4442 1.21866L25.4561 1.2027L25.4608 1.19638L26.3581 1.86935ZM24.7874 6.17621C25.3484 5.27252 25.9108 4.43725 26.3581 3.79433C26.8054 4.43725 27.3678 5.27252 27.9288 6.17621C28.5477 7.17344 29.1523 8.23405 29.5984 9.20055C30.0641 10.2096 30.2838 10.9644 30.2838 11.4031C30.2838 13.5878 28.5427 15.3287 26.3581 15.3287C24.1735 15.3287 22.4324 13.5878 22.4324 11.4031C22.4324 10.9644 22.6522 10.2096 23.1179 9.20055C23.5639 8.23405 24.1685 7.17344 24.7874 6.17621Z" fill="#707070"/>
<path d="M26.358 1.86937C27.2553 1.1964 27.2552 1.19626 27.2553 1.1964L26.358 0L25.4607 1.1964C25.4608 1.19626 25.4607 1.1964 26.358 1.86937Z" fill="#707070"/>
<path fill-rule="evenodd" clip-rule="evenodd" d="M7.85134 37.48V37.7568C7.85134 38.9956 6.84704 40 5.6081 40H2.24324C1.00433 40 0 38.9956 0 37.7568V25.4241C0 24.1853 1.00433 23.1809 2.24324 23.1809H5.6081C6.66915 23.1809 7.55814 23.9176 7.79155 24.9074C9.27703 24.372 11.0121 23.7348 11.5429 23.4928C11.9938 23.2874 12.5145 23.2177 12.9471 23.1927C13.402 23.1664 13.874 23.1846 14.287 23.2165C14.7035 23.2487 15.0816 23.2969 15.3546 23.3366C15.4917 23.3565 15.6039 23.3746 15.6829 23.3878C15.7225 23.3946 15.7539 23.3999 15.7761 23.404L15.8025 23.4087L15.8102 23.4101L15.8143 23.4108L15.8343 23.4146L23.3366 25.0976L23.3835 25.1126L23.3963 25.1166L23.448 25.1324C23.4952 25.1466 23.5669 25.1676 23.6593 25.1932C23.8445 25.2445 24.1108 25.3138 24.4282 25.383C25.073 25.5236 25.8853 25.6549 26.6427 25.6549C27.3425 25.6549 28.0664 25.9157 28.4534 26.6245C28.7857 27.233 28.7083 27.9011 28.5839 28.3638C28.429 28.9396 28.1082 29.5456 27.7004 30.0604C28.2508 29.8528 28.8524 29.607 29.4983 29.3421L29.6363 29.2853C31.4567 28.5383 33.6153 27.6524 35.5192 27.3376C37.6948 26.9777 39.2783 27.7674 39.9962 29.1685C40.6351 30.4157 40.4868 32.0526 39.5251 33.0388C39.2837 33.2863 38.9159 33.546 38.5466 33.7856C38.1522 34.0413 37.6664 34.3303 37.1267 34.6364C36.0457 35.2496 34.7075 35.9544 33.3639 36.6358C30.7034 37.9851 27.9146 39.2973 27.0284 39.6218C26.0015 39.998 24.8984 40.0335 23.8376 39.9789C23.2597 39.9492 22.5884 39.8825 21.9212 39.8161C21.4391 39.7682 20.9593 39.7204 20.5183 39.6871C18.3561 39.5232 16.6965 38.9955 15.1679 38.5094L14.982 38.4503C13.4032 37.9491 11.9345 37.5046 9.98847 37.4262C9.54352 37.4083 8.65509 37.4409 7.85134 37.48ZM12.4733 25.534C12.5452 25.5013 12.7359 25.4519 13.0764 25.4322C13.3945 25.4138 13.7574 25.4255 14.1139 25.4531C14.4668 25.4804 14.7929 25.5217 15.0317 25.5564C15.1504 25.5736 15.2461 25.5891 15.3108 25.6C15.3432 25.6055 15.3676 25.6097 15.3835 25.6126L15.3859 25.613L22.7522 27.2655L22.8027 27.2808C22.864 27.2992 22.9511 27.3247 23.0602 27.355C23.2779 27.4153 23.5851 27.495 23.95 27.5746C24.6064 27.7178 25.4858 27.8689 26.3822 27.8945C26.3182 28.0759 26.21 28.29 26.0633 28.5032C25.8843 28.7634 25.6877 28.9646 25.5263 29.0798C25.059 29.4136 24.6819 29.5532 24.453 29.6127C24.3371 29.6428 24.2556 29.6532 24.2153 29.6568L24.1982 29.6581L24.1916 29.6585L18.1775 29.5858L17.9628 31.8107L18.164 30.7073L17.964 31.811L18.0236 31.8217L18.1947 31.8525C18.3427 31.879 18.556 31.9169 18.8181 31.9628C19.3419 32.0546 20.0614 32.1782 20.8437 32.3056C22.3853 32.5568 24.2434 32.8352 25.2976 32.8988C26.0256 32.9428 26.8736 32.7194 27.6622 32.456C28.4851 32.1813 29.4147 31.801 30.3496 31.4174C32.2757 30.6273 34.237 29.8233 35.8853 29.5508C37.3102 29.315 37.8174 29.8356 37.9997 30.1913C38.2608 30.7011 38.1188 31.2678 37.919 31.4727C37.87 31.5229 37.6934 31.6651 37.3259 31.9035C36.9835 32.1256 36.5401 32.3903 36.02 32.6853C34.9813 33.2743 33.6772 33.9617 32.3493 34.6352C29.6669 35.9956 26.9969 37.2444 26.257 37.5154C25.6578 37.7349 24.9173 37.7883 23.953 37.7386C23.3833 37.7093 22.8429 37.6544 22.2537 37.5944C21.7775 37.5459 21.2693 37.4943 20.6878 37.4502C18.7903 37.3064 17.3476 36.8481 15.8017 36.357L15.6608 36.3122C14.0596 35.8039 12.3462 35.2761 10.0788 35.1848C9.56831 35.1643 8.65957 35.1958 7.85134 35.234V27.2695C9.42777 26.7053 11.7625 25.8581 12.4733 25.534ZM15.6087 24.5135L15.8143 23.4108C15.8145 23.4109 15.8143 23.4108 15.6087 24.5135ZM5.6081 25.4241H2.24324V37.7568H5.6081V25.4241Z" fill="#707070"/>
</svg>
