<svg width="40" height="40" viewBox="0 0 40 40" fill="none" xmlns="http://www.w3.org/2000/svg">
<path d="M14.9958 40H1.6662C1.2243 40 0.800492 39.8245 0.488019 39.512C0.175546 39.1995 0 38.7757 0 38.3338C0 37.8919 0.175546 37.4681 0.488019 37.1556C0.800492 36.8431 1.2243 36.6676 1.6662 36.6676H14.9958C15.4377 36.6676 15.8615 36.8431 16.174 37.1556C16.4865 37.4681 16.662 37.8919 16.662 38.3338C16.662 38.7757 16.4865 39.1995 16.174 39.512C15.8615 39.8245 15.4377 40 14.9958 40Z" fill="#053471"/>
<path d="M11.6634 33.3352H1.6662C1.2243 33.3352 0.800492 33.1596 0.488019 32.8472C0.175546 32.5347 0 32.1109 0 31.669C0 31.2271 0.175546 30.8033 0.488019 30.4908C0.800492 30.1783 1.2243 30.0028 1.6662 30.0028H11.6634C12.1053 30.0028 12.5291 30.1783 12.8416 30.4908C13.1541 30.8033 13.3296 31.2271 13.3296 31.669C13.3296 32.1109 13.1541 32.5347 12.8416 32.8472C12.5291 33.1596 12.1053 33.3352 11.6634 33.3352Z" fill="#053471"/>
<path d="M8.331 26.6704H1.6662C1.2243 26.6704 0.800492 26.4948 0.488019 26.1823C0.175546 25.8699 0 25.4461 0 25.0042C0 24.5623 0.175546 24.1384 0.488019 23.826C0.800492 23.5135 1.2243 23.338 1.6662 23.338H8.331C8.7729 23.338 9.19671 23.5135 9.50918 23.826C9.82166 24.1384 9.9972 24.5623 9.9972 25.0042C9.9972 25.4461 9.82166 25.8699 9.50918 26.1823C9.19671 26.4948 8.7729 26.6704 8.331 26.6704Z" fill="#053471"/>
<path d="M21.6606 39.925C21.2186 39.9447 20.787 39.788 20.4607 39.4894C20.1343 39.1908 19.9399 38.7748 19.9202 38.3329C19.9005 37.891 20.0572 37.4594 20.3558 37.133C20.6544 36.8067 21.0704 36.6123 21.5123 36.5926C24.6655 36.3041 27.6712 35.1231 30.1774 33.1879C32.6836 31.2527 34.5865 28.6434 35.6632 25.6657C36.7399 22.688 36.9458 19.4651 36.2569 16.3746C35.5679 13.2841 34.0126 10.4538 31.7732 8.21538C29.5337 5.97692 26.7027 4.42293 23.6119 3.73541C20.521 3.0479 17.2983 3.25532 14.3211 4.3334C11.3439 5.41147 8.73547 7.31556 6.80142 9.82264C4.86737 12.3297 3.68773 15.336 3.40067 18.4893C3.36089 18.9295 3.14791 19.3358 2.80856 19.6189C2.46922 19.902 2.03131 20.0387 1.59117 19.9989C1.15104 19.9591 0.744726 19.7462 0.461625 19.4068C0.178525 19.0675 0.0418238 18.6296 0.0815952 18.1894C0.54628 13.063 2.97013 8.31335 6.84858 4.92907C10.727 1.5448 15.7613 -0.213322 20.9034 0.0206918C26.0454 0.254706 30.8992 2.46282 34.4542 6.18539C38.0092 9.90796 39.9916 14.8582 39.9888 20.0056C40.0143 25.0014 38.1583 29.8238 34.79 33.5135C31.4218 37.2032 26.788 39.4897 21.8105 39.9183C21.7605 39.9233 21.7089 39.925 21.6606 39.925V39.925Z" fill="#053471"/>
<path d="M19.9944 10.0084C19.5525 10.0084 19.1287 10.1839 18.8163 10.4964C18.5038 10.8089 18.3282 11.2327 18.3282 11.6746V20.0056C18.3283 20.4474 18.5039 20.8712 18.8164 21.1836L23.815 26.1822C24.1293 26.4857 24.5502 26.6536 24.987 26.6498C25.4239 26.646 25.8418 26.4708 26.1508 26.1619C26.4597 25.8529 26.6349 25.435 26.6387 24.9982C26.6425 24.5613 26.4746 24.1404 26.171 23.8262L21.6606 19.3158V11.6746C21.6606 11.2327 21.4851 10.8089 21.1726 10.4964C20.8602 10.1839 20.4364 10.0084 19.9944 10.0084V10.0084Z" fill="#053471"/>
</svg>
