<svg width="40" height="40" viewBox="0 0 40 40" fill="none" xmlns="http://www.w3.org/2000/svg">
<path d="M19.9237 3.33376C22.1346 3.34102 24.322 3.78666 26.3595 4.6449C28.397 5.50313 30.244 6.75693 31.7937 8.33372H26.5904C26.1483 8.33372 25.7244 8.50931 25.4119 8.82187C25.0993 9.13443 24.9237 9.55835 24.9237 10.0004C24.9237 10.4424 25.0993 10.8663 25.4119 11.1789C25.7244 11.4914 26.1483 11.667 26.5904 11.667H33.4953C34.316 11.6666 35.103 11.3404 35.6833 10.76C36.2637 10.1797 36.5899 9.39275 36.5903 8.57205V1.66711C36.5903 1.22509 36.4147 0.801169 36.1022 0.488611C35.7896 0.176053 35.3657 0.000459936 34.9237 0.000459936V0.000459936C34.4816 0.000459936 34.0577 0.176053 33.7452 0.488611C33.4326 0.801169 33.257 1.22509 33.257 1.66711V5.13041C30.5023 2.64952 27.1114 0.984467 23.4639 0.321705C19.8164 -0.341056 16.0565 0.0246463 12.6051 1.37786C9.1537 2.73107 6.14717 5.01837 3.92217 7.98359C1.69718 10.9488 0.341575 14.4749 0.0071734 18.167C-0.0143542 18.3991 0.0126997 18.6331 0.0866112 18.8542C0.160523 19.0752 0.279671 19.2785 0.436465 19.4509C0.593259 19.6234 0.78426 19.7613 0.997299 19.8559C1.21034 19.9505 1.44074 19.9997 1.67383 20.0003V20.0003C2.08148 20.0055 2.47639 19.8583 2.78126 19.5877C3.08613 19.317 3.27901 18.9423 3.32216 18.537C3.69318 14.3882 5.6021 10.5282 8.67393 7.71512C11.7458 4.90204 15.7585 3.33925 19.9237 3.33376Z" fill="#053471"/>
<path d="M38.1756 20.0005C37.7679 19.9953 37.373 20.1424 37.0682 20.4131C36.7633 20.6837 36.5704 21.0584 36.5273 21.4638C36.2517 24.6359 35.0721 27.6624 33.1283 30.1842C31.1846 32.706 28.5582 34.6173 25.5608 35.6914C22.5635 36.7655 19.3209 36.9573 16.2178 36.244C13.1147 35.5307 10.2814 33.9423 8.05388 31.6672H13.2572C13.6992 31.6672 14.1232 31.4916 14.4357 31.179C14.7483 30.8664 14.9239 30.4425 14.9239 30.0005C14.9239 29.5585 14.7483 29.1345 14.4357 28.822C14.1232 28.5094 13.6992 28.3338 13.2572 28.3338H6.35221C5.9457 28.3336 5.54314 28.4135 5.16754 28.569C4.79194 28.7244 4.45066 28.9524 4.16322 29.2398C3.87578 29.5273 3.64781 29.8686 3.49235 30.2442C3.33689 30.6198 3.25698 31.0223 3.2572 31.4288V38.3338C3.2572 38.7759 3.4328 39.1998 3.74536 39.5123C4.05792 39.8249 4.48184 40.0005 4.92387 40.0005C5.3659 40.0005 5.78982 39.8249 6.10239 39.5123C6.41495 39.1998 6.59054 38.7759 6.59054 38.3338V34.8705C9.34526 37.3514 12.7362 39.0165 16.3837 39.6792C20.0312 40.342 23.7912 39.9763 27.2426 38.6231C30.694 37.2699 33.7006 34.9825 35.9256 32.0173C38.1506 29.052 39.5062 25.5259 39.8406 21.8338C39.8621 21.6017 39.8351 21.3677 39.7612 21.1466C39.6872 20.9256 39.5681 20.7223 39.4113 20.5499C39.2545 20.3774 39.0635 20.2395 38.8505 20.1449C38.6374 20.0503 38.407 20.0011 38.1739 20.0005H38.1756Z" fill="#053471"/>
</svg>
