<svg width="40" height="40" viewBox="0 0 40 40" fill="none" xmlns="http://www.w3.org/2000/svg">
<path fill-rule="evenodd" clip-rule="evenodd" d="M0.386859 7.85871C-0.128953 8.37455 -0.128953 9.21082 0.386859 9.72667C0.902671 10.2425 1.73896 10.2425 2.25477 9.72667L3.18932 8.79212L7.85853 13.4613L4.12272 17.1973C3.60686 17.7131 3.60686 18.5494 4.12272 19.0652C4.63846 19.5811 5.47472 19.5811 5.99057 19.0652L7.85807 17.1976L23.7358 33.0757C25.6506 34.9906 28.4489 35.4838 30.8187 34.5552L32.1412 35.8778C32.8329 36.5694 33.8125 36.7974 34.694 36.5616L37.7453 39.6131C38.2611 40.129 39.0973 40.129 39.6132 39.6131C40.129 39.0973 40.129 38.261 39.6132 37.7452L36.5614 34.6932C36.7964 33.8121 36.5683 32.8331 35.8771 32.1418L34.5547 30.8194C35.4834 28.4494 34.9903 25.6509 33.0754 23.7359L17.1976 7.85779L19.0659 5.98949C19.5818 5.47365 19.5818 4.63738 19.0659 4.12153C18.5502 3.60573 17.7138 3.60573 17.1981 4.12153L13.4622 7.85745L8.79308 3.18821L9.72637 2.25483C10.2422 1.739 10.2422 0.902691 9.72637 0.386868C9.21064 -0.128956 8.37437 -0.128956 7.85853 0.386868L0.386859 7.85871ZM11.8479 9.47188L7.17876 4.80255L4.80363 7.17769L9.47285 11.847L11.8479 9.47188ZM15.5833 9.47223L9.47239 15.5833L14.5019 20.6129L20.6128 14.5017L15.5833 9.47223ZM16.3697 22.4808L19.1716 25.2828L21.2934 23.161C21.8092 22.6452 22.6455 22.6452 23.1613 23.161C23.6772 23.6769 23.6772 24.5132 23.1613 25.029L21.0396 27.1507L22.907 29.0182L25.0289 26.8963C25.5448 26.3804 26.3811 26.3804 26.8969 26.8963C27.4126 27.4121 27.4126 28.2484 26.8969 28.7642L24.775 30.8862L25.3502 31.4614C26.6037 32.7149 28.4357 33.0372 29.9867 32.4285L32.4282 29.987C33.037 28.4358 32.7146 26.6038 31.4611 25.3503L22.4806 16.3697L16.3697 22.4808ZM34.2944 33.7925C34.2848 33.7798 34.2742 33.7677 34.2628 33.7563L33.3221 32.8154C33.2427 32.9039 33.1605 32.9907 33.0754 33.0757C32.9903 33.1609 32.9034 33.2432 32.8148 33.3227L33.7555 34.2634C33.7672 34.275 33.7794 34.2856 33.7921 34.2953C33.8497 34.1929 33.9222 34.0964 34.0094 34.0092C34.0964 33.9224 34.1924 33.85 34.2944 33.7925Z" fill="#707070"/>
</svg>
